<svg xmlns="http://www.w3.org/2000/svg" width="20" height="20" viewBox="0 0 528 506.66666">
  <g>
    <path d="m 0,0 c -99.121,0 -125.802,5.021 -148.897,28.116 -23.239,23.238 -28.116,49.776 -28.116,148.897 0,99.121 5.021,125.659 28.116,148.897 23.095,23.095 49.776,28.116 148.897,28.116 99.122,0 125.803,-5.021 148.897,-28.116 23.239,-23.238 28.116,-49.776 28.116,-148.897 0,-99.121 -4.877,-125.659 -28.116,-148.897 C 125.803,5.021 99.122,0 0,0" style="fill:#000000;fill-opacity:1;fill-rule:nonzero;stroke:#ffffff;stroke-width:4;stroke-opacity:1" transform="matrix(1.3333333,0,0,-1.3333333,267.6244,494.90293)"/>
    <text x="-10" y="65" fill="#ffffff" font-size="90" font-family="sans-serif" text-anchor="middle" transform="matrix(1.3333333,0,0,1.3333333,287.8984,194.04813)">.work</text>
  </g>
</svg>