<svg xmlns="http://www.w3.org/2000/svg" version="1.1" xmlns:xlink="http://www.w3.org/1999/xlink" width="528" height="506.66666"><svg version="1.1" id="SvgjsSvg1021" width="528" height="506.66666" viewBox="0 0 528 506.66666" sodipodi:docname="diia_logo_screen.ai" xmlns:inkscape="http://www.inkscape.org/namespaces/inkscape" xmlns:sodipodi="http://sodipodi.sourceforge.net/DTD/sodipodi-0.dtd" xmlns:xlink="http://www.w3.org/1999/xlink" xmlns="http://www.w3.org/2000/svg" xmlns:svg="http://www.w3.org/2000/svg">
  <defs id="SvgjsDefs1020">
    <clipPath clipPathUnits="userSpaceOnUse" id="SvgjsClipPath1019">
      <path d="M 0,380 H 396 V 0 H 0 Z" transform="translate(-200.71831,-8.8228027)" id="SvgjsPath1018"></path>
    </clipPath>
    <color-profile inkscape:label="sRGB IEC61966-2.1" name="sRGB IEC61966-2.1" xlink:href="..." id="SvgjsColor-profile1017"></color-profile>
    <clipPath clipPathUnits="userSpaceOnUse" id="SvgjsClipPath1016">
      <path d="M 0,380 H 396 V 0 H 0 Z" transform="translate(-215.92381,-234.46391)" id="SvgjsPath1015"></path>
    </clipPath>
  </defs>
  <sodipodi:namedview id="SvgjsSodipodi:namedview1014" pagecolor="#ffffff" bordercolor="#000000" borderopacity="0.25" inkscape:showpageshadow="2" inkscape:pageopacity="0.0" inkscape:pagecheckerboard="0" inkscape:deskcolor="#d1d1d1">
    <inkscape:page x="0" y="0" inkscape:label="1" id="SvgjsInkscape:page1013" width="528" height="506.66666" margin="11.763706 24.358667 22.868 31.607466" bleed="0"></inkscape:page>
  </sodipodi:namedview>
  <g id="SvgjsG1012" inkscape:groupmode="layer" inkscape:label="Layer 1">
    <path id="SvgjsPath1011" d="m 0,0 c -99.121,0 -125.802,5.021 -148.897,28.116 -23.239,23.238 -28.116,49.776 -28.116,148.897 0,99.121 5.021,125.659 28.116,148.897 23.095,23.095 49.776,28.116 148.897,28.116 99.122,0 125.803,-5.021 148.897,-28.116 23.239,-23.238 28.116,-49.776 28.116,-148.897 0,-99.121 -4.877,-125.659 -28.116,-148.897 C 125.803,5.021 99.122,0 0,0" style="fill:#000000;fill-opacity:1;fill-rule:nonzero;stroke:#ffffff;stroke-width:4;stroke-opacity:1" transform="matrix(1.3333333,0,0,-1.3333333,267.6244,494.90293)" clip-path="url(#clipPath2)"></path>
    <text x="-10" y="65" fill="#ffffff" font-size="90" font-family="sans-serif" text-anchor="middle" transform="matrix(1.3333333,0,0,1.3333333,287.8984,194.04813)" clip-path="url(#clipPath4)">.work</text>
  </g>
</svg><style>@media (prefers-color-scheme: light) { :root { filter: none; } }
@media (prefers-color-scheme: dark) { :root { filter: none; } }
</style></svg>